<svg id="Layer_3" data-name="Layer 3" xmlns="http://www.w3.org/2000/svg" viewBox="0 0 100 100"><defs><style>.cls-1{opacity:0.5;}.cls-2{fill:#fff;}.cls-3{opacity:0.25;}.cls-4{opacity:0.75;}</style></defs><title>folder</title><g class="cls-1"><path class="cls-2" d="M74,81h0V24h0a5,5,0,0,1,5,5V76A5,5,0,0,1,74,81Z"/></g><g class="cls-3"><path class="cls-2" d="M79,77h0V29h0a5,5,0,0,1,5,5V72A5,5,0,0,1,79,77Z"/></g><path class="cls-2" d="M64,42a5,5,0,0,1-5-5V20a5,5,0,0,0-5-5H20a5,5,0,0,0-5,5V80a5,5,0,0,0,5,5H64a5,5,0,0,0,5-5V47A5,5,0,0,0,64,42Z"/><g class="cls-4"><path class="cls-2" d="M69,20H59V37a5,5,0,0,0,5,5,5,5,0,0,1,5,5V80a5,5,0,0,1-5,5h5a5,5,0,0,0,5-5V25A5,5,0,0,0,69,20Z"/></g></svg>