<svg id="Layer_3" data-name="Layer 3" xmlns="http://www.w3.org/2000/svg" viewBox="0 0 100 100"><defs><style>.cls-1{opacity:0.75;}.cls-2{fill:#fff;}.cls-3{opacity:0.5;}.cls-4{opacity:0.25;}</style></defs><title>me</title><g class="cls-1"><path class="cls-2" d="M30,35H15V30A15,15,0,0,1,30,15H45v5A15,15,0,0,1,30,35Z"/></g><g class="cls-1"><path class="cls-2" d="M45,15H70A15,15,0,0,1,85,30v5H60A15,15,0,0,1,45,20Z"/></g><path class="cls-2" d="M60,35A15,15,0,0,1,45,20,15,15,0,0,1,30,35H15V70A15,15,0,0,0,30,85H70A15,15,0,0,0,85,70V35ZM28,60a5,5,0,0,1-5-5V45a5,5,0,0,1,5-5H43a5,5,0,0,1,5,5V55a5,5,0,0,1-5,5ZM60,76H40a5,5,0,0,1,0-10H60a5,5,0,0,1,0,10ZM78,55a5,5,0,0,1-5,5H58a5,5,0,0,1-5-5V45a5,5,0,0,1,5-5H73a5,5,0,0,1,5,5Z"/><g class="cls-3"><rect class="cls-2" x="35" y="66" width="30" height="10" rx="5"/></g><g class="cls-4"><rect class="cls-2" x="53" y="40" width="25" height="20" rx="5"/></g><g class="cls-4"><rect class="cls-2" x="23" y="40" width="25" height="20" rx="5"/></g></svg>